<?xml version="1.0" encoding="UTF-8" standalone="no"?>
<!DOCTYPE svg PUBLIC "-//W3C//DTD SVG 1.1//EN"
 "http://www.w3.org/Graphics/SVG/1.1/DTD/svg11.dtd">
<!-- Generated by graphviz version 2.40.1 (20161225.0304)
 -->
<!-- Title: %3 Pages: 1 -->
<svg width="2729pt" height="476pt"
 viewBox="0.00 0.00 2729.34 476.00" xmlns="http://www.w3.org/2000/svg" xmlns:xlink="http://www.w3.org/1999/xlink">
<g id="graph0" class="graph" transform="scale(1 1) rotate(0) translate(4 472)">
<title>%3</title>
<polygon fill="#ffffff" stroke="transparent" points="-4,4 -4,-472 2725.3414,-472 2725.3414,4 -4,4"/>
<!-- [root] google_compute_disk.vagrantdisk -->
<g id="node1" class="node">
<title>[root] google_compute_disk.vagrantdisk</title>
<polygon fill="none" stroke="#000000" points="1731,-180 1470,-180 1470,-144 1731,-144 1731,-180"/>
<text text-anchor="middle" x="1600.5" y="-158.3" font-family="Times,serif" font-size="14.00" fill="#000000">google_compute_disk.vagrantdisk</text>
</g>
<!-- [root] provider.google -->
<g id="node12" class="node">
<title>[root] provider.google</title>
<polygon fill="none" stroke="#000000" points="1286.5,-108 1168.6955,-90 1286.5,-72 1404.3045,-90 1286.5,-108"/>
<text text-anchor="middle" x="1286.5" y="-86.3" font-family="Times,serif" font-size="14.00" fill="#000000">provider.google</text>
</g>
<!-- [root] google_compute_disk.vagrantdisk&#45;&gt;[root] provider.google -->
<g id="edge1" class="edge">
<title>[root] google_compute_disk.vagrantdisk&#45;&gt;[root] provider.google</title>
<path fill="none" stroke="#000000" d="M1521.6698,-143.9243C1466.2639,-131.2198 1393.4199,-114.5167 1343.5729,-103.0868"/>
<polygon fill="#000000" stroke="#000000" points="1344.1405,-99.6262 1333.6111,-100.8026 1342.5759,-106.4491 1344.1405,-99.6262"/>
</g>
<!-- [root] var.disk&#45;name -->
<g id="node13" class="node">
<title>[root] var.disk&#45;name</title>
<ellipse fill="none" stroke="#000000" cx="1563.5" cy="-90" rx="104.7816" ry="18"/>
<text text-anchor="middle" x="1563.5" y="-86.3" font-family="Times,serif" font-size="14.00" fill="#000000">[root] var.disk&#45;name</text>
</g>
<!-- [root] google_compute_disk.vagrantdisk&#45;&gt;[root] var.disk&#45;name -->
<g id="edge2" class="edge">
<title>[root] google_compute_disk.vagrantdisk&#45;&gt;[root] var.disk&#45;name</title>
<path fill="none" stroke="#000000" d="M1591.1633,-143.8314C1587.0757,-135.8771 1582.1896,-126.369 1577.6691,-117.5723"/>
<polygon fill="#000000" stroke="#000000" points="1580.6461,-115.7078 1572.9624,-108.4133 1574.4201,-118.9074 1580.6461,-115.7078"/>
</g>
<!-- [root] var.os -->
<g id="node14" class="node">
<title>[root] var.os</title>
<ellipse fill="none" stroke="#000000" cx="1753.5" cy="-90" rx="66.8882" ry="18"/>
<text text-anchor="middle" x="1753.5" y="-86.3" font-family="Times,serif" font-size="14.00" fill="#000000">[root] var.os</text>
</g>
<!-- [root] google_compute_disk.vagrantdisk&#45;&gt;[root] var.os -->
<g id="edge3" class="edge">
<title>[root] google_compute_disk.vagrantdisk&#45;&gt;[root] var.os</title>
<path fill="none" stroke="#000000" d="M1639.1084,-143.8314C1660.952,-133.552 1688.3099,-120.6777 1710.7936,-110.0971"/>
<polygon fill="#000000" stroke="#000000" points="1712.5429,-113.1422 1720.1008,-105.7173 1709.5623,-106.8084 1712.5429,-113.1422"/>
</g>
<!-- [root] google_compute_firewall.firewall&#45;openshift&#45;console -->
<g id="node2" class="node">
<title>[root] google_compute_firewall.firewall&#45;openshift&#45;console</title>
<polygon fill="none" stroke="#000000" points="383,-324 0,-324 0,-288 383,-288 383,-324"/>
<text text-anchor="middle" x="191.5" y="-302.3" font-family="Times,serif" font-size="14.00" fill="#000000">google_compute_firewall.firewall&#45;openshift&#45;console</text>
</g>
<!-- [root] google_compute_network.vagrant_network -->
<g id="node10" class="node">
<title>[root] google_compute_network.vagrant_network</title>
<polygon fill="none" stroke="#000000" points="1145,-180 818,-180 818,-144 1145,-144 1145,-180"/>
<text text-anchor="middle" x="981.5" y="-158.3" font-family="Times,serif" font-size="14.00" fill="#000000">google_compute_network.vagrant_network</text>
</g>
<!-- [root] google_compute_firewall.firewall&#45;openshift&#45;console&#45;&gt;[root] google_compute_network.vagrant_network -->
<g id="edge4" class="edge">
<title>[root] google_compute_firewall.firewall&#45;openshift&#45;console&#45;&gt;[root] google_compute_network.vagrant_network</title>
<path fill="none" stroke="#000000" d="M290.3551,-287.9808C438.8319,-260.9167 718.3983,-209.9578 872.5678,-181.856"/>
<polygon fill="#000000" stroke="#000000" points="873.3283,-185.2751 882.5386,-180.0385 872.073,-178.3886 873.3283,-185.2751"/>
</g>
<!-- [root] google_compute_firewall.firewall&#45;secure&#45;forward -->
<g id="node3" class="node">
<title>[root] google_compute_firewall.firewall&#45;secure&#45;forward</title>
<polygon fill="none" stroke="#000000" points="768,-324 401,-324 401,-288 768,-288 768,-324"/>
<text text-anchor="middle" x="584.5" y="-302.3" font-family="Times,serif" font-size="14.00" fill="#000000">google_compute_firewall.firewall&#45;secure&#45;forward</text>
</g>
<!-- [root] google_compute_firewall.firewall&#45;secure&#45;forward&#45;&gt;[root] google_compute_network.vagrant_network -->
<g id="edge5" class="edge">
<title>[root] google_compute_firewall.firewall&#45;secure&#45;forward&#45;&gt;[root] google_compute_network.vagrant_network</title>
<path fill="none" stroke="#000000" d="M634.3783,-287.9081C707.5729,-261.359 843.8505,-211.9283 922.1119,-183.5413"/>
<polygon fill="#000000" stroke="#000000" points="923.6185,-186.718 931.8257,-180.0179 921.2315,-180.1375 923.6185,-186.718"/>
</g>
<!-- [root] google_compute_firewall.http -->
<g id="node4" class="node">
<title>[root] google_compute_firewall.http</title>
<polygon fill="none" stroke="#000000" points="1016.5,-324 786.5,-324 786.5,-288 1016.5,-288 1016.5,-324"/>
<text text-anchor="middle" x="901.5" y="-302.3" font-family="Times,serif" font-size="14.00" fill="#000000">google_compute_firewall.http</text>
</g>
<!-- [root] google_compute_firewall.http&#45;&gt;[root] google_compute_network.vagrant_network -->
<g id="edge6" class="edge">
<title>[root] google_compute_firewall.http&#45;&gt;[root] google_compute_network.vagrant_network</title>
<path fill="none" stroke="#000000" d="M911.6321,-287.7623C925.5176,-262.7682 950.5598,-217.6924 966.5884,-188.8409"/>
<polygon fill="#000000" stroke="#000000" points="969.6533,-190.531 971.4502,-180.0896 963.5342,-187.1314 969.6533,-190.531"/>
</g>
<!-- [root] google_compute_firewall.https -->
<g id="node5" class="node">
<title>[root] google_compute_firewall.https</title>
<polygon fill="none" stroke="#000000" points="1272,-324 1035,-324 1035,-288 1272,-288 1272,-324"/>
<text text-anchor="middle" x="1153.5" y="-302.3" font-family="Times,serif" font-size="14.00" fill="#000000">google_compute_firewall.https</text>
</g>
<!-- [root] google_compute_firewall.https&#45;&gt;[root] google_compute_network.vagrant_network -->
<g id="edge7" class="edge">
<title>[root] google_compute_firewall.https&#45;&gt;[root] google_compute_network.vagrant_network</title>
<path fill="none" stroke="#000000" d="M1061.9188,-287.8638C1041.0087,-279.8988 1020.5435,-268.4498 1005.5,-252 990.2148,-235.2858 984.4711,-209.9204 982.4037,-190.3735"/>
<polygon fill="#000000" stroke="#000000" points="985.8769,-189.896 981.5961,-180.2046 978.8989,-190.4503 985.8769,-189.896"/>
</g>
<!-- [root] google_compute_firewall.icmp -->
<g id="node6" class="node">
<title>[root] google_compute_firewall.icmp</title>
<polygon fill="none" stroke="#000000" points="1525,-324 1290,-324 1290,-288 1525,-288 1525,-324"/>
<text text-anchor="middle" x="1407.5" y="-302.3" font-family="Times,serif" font-size="14.00" fill="#000000">google_compute_firewall.icmp</text>
</g>
<!-- [root] google_compute_firewall.icmp&#45;&gt;[root] google_compute_network.vagrant_network -->
<g id="edge8" class="edge">
<title>[root] google_compute_firewall.icmp&#45;&gt;[root] google_compute_network.vagrant_network</title>
<path fill="none" stroke="#000000" d="M1289.9892,-289.1241C1184.6416,-273.9112 1046.1811,-253.6713 1043.5,-252 1020.0088,-237.3564 1003.1561,-210.1728 993.005,-189.4984"/>
<polygon fill="#000000" stroke="#000000" points="996.086,-187.8239 988.6866,-180.2411 989.7423,-190.7832 996.086,-187.8239"/>
</g>
<!-- [root] google_compute_firewall.ssh -->
<g id="node7" class="node">
<title>[root] google_compute_firewall.ssh</title>
<polygon fill="none" stroke="#000000" points="1767.5,-324 1543.5,-324 1543.5,-288 1767.5,-288 1767.5,-324"/>
<text text-anchor="middle" x="1655.5" y="-302.3" font-family="Times,serif" font-size="14.00" fill="#000000">google_compute_firewall.ssh</text>
</g>
<!-- [root] google_compute_firewall.ssh&#45;&gt;[root] google_compute_network.vagrant_network -->
<g id="edge9" class="edge">
<title>[root] google_compute_firewall.ssh&#45;&gt;[root] google_compute_network.vagrant_network</title>
<path fill="none" stroke="#000000" d="M1543.4662,-289.0549C1540.4475,-288.688 1537.4544,-288.3354 1534.5,-288 1433.0601,-276.4822 1169.216,-294.7371 1076.5,-252 1055.9506,-242.5278 1056.8498,-231.6424 1040.5,-216 1030.4455,-206.3806 1019.222,-196.0177 1009.2853,-186.9673"/>
<polygon fill="#000000" stroke="#000000" points="1011.3969,-184.1572 1001.6391,-180.0298 1006.6932,-189.3414 1011.3969,-184.1572"/>
</g>
<!-- [root] google_compute_image.vagrantimg -->
<g id="node8" class="node">
<title>[root] google_compute_image.vagrantimg</title>
<polygon fill="none" stroke="#000000" points="1821.5,-252 1549.5,-252 1549.5,-216 1821.5,-216 1821.5,-252"/>
<text text-anchor="middle" x="1685.5" y="-230.3" font-family="Times,serif" font-size="14.00" fill="#000000">google_compute_image.vagrantimg</text>
</g>
<!-- [root] google_compute_image.vagrantimg&#45;&gt;[root] google_compute_disk.vagrantdisk -->
<g id="edge10" class="edge">
<title>[root] google_compute_image.vagrantimg&#45;&gt;[root] google_compute_disk.vagrantdisk</title>
<path fill="none" stroke="#000000" d="M1664.0509,-215.8314C1653.6822,-207.0485 1641.0771,-196.3712 1629.8354,-186.8489"/>
<polygon fill="#000000" stroke="#000000" points="1631.8349,-183.9556 1621.9422,-180.1628 1627.3105,-189.297 1631.8349,-183.9556"/>
</g>
<!-- [root] var.image&#45;name -->
<g id="node15" class="node">
<title>[root] var.image&#45;name</title>
<ellipse fill="none" stroke="#000000" cx="1862.5" cy="-162" rx="113.18" ry="18"/>
<text text-anchor="middle" x="1862.5" y="-158.3" font-family="Times,serif" font-size="14.00" fill="#000000">[root] var.image&#45;name</text>
</g>
<!-- [root] google_compute_image.vagrantimg&#45;&gt;[root] var.image&#45;name -->
<g id="edge11" class="edge">
<title>[root] google_compute_image.vagrantimg&#45;&gt;[root] var.image&#45;name</title>
<path fill="none" stroke="#000000" d="M1730.1646,-215.8314C1754.9558,-205.7468 1785.8868,-193.1647 1811.6099,-182.7011"/>
<polygon fill="#000000" stroke="#000000" points="1813.2457,-185.8142 1821.1899,-178.8041 1810.6081,-179.3301 1813.2457,-185.8142"/>
</g>
<!-- [root] google_compute_instance.vagrant&#45;build&#45;box -->
<g id="node9" class="node">
<title>[root] google_compute_instance.vagrant&#45;build&#45;box</title>
<polygon fill="none" stroke="#000000" points="2117.5,-324 1785.5,-324 1785.5,-288 2117.5,-288 2117.5,-324"/>
<text text-anchor="middle" x="1951.5" y="-302.3" font-family="Times,serif" font-size="14.00" fill="#000000">google_compute_instance.vagrant&#45;build&#45;box</text>
</g>
<!-- [root] google_compute_instance.vagrant&#45;build&#45;box&#45;&gt;[root] google_compute_image.vagrantimg -->
<g id="edge12" class="edge">
<title>[root] google_compute_instance.vagrant&#45;build&#45;box&#45;&gt;[root] google_compute_image.vagrantimg</title>
<path fill="none" stroke="#000000" d="M1884.7203,-287.9243C1847.4079,-277.8247 1800.76,-265.1982 1761.9851,-254.7027"/>
<polygon fill="#000000" stroke="#000000" points="1762.8743,-251.3175 1752.3072,-252.0831 1761.0453,-258.0744 1762.8743,-251.3175"/>
</g>
<!-- [root] google_compute_subnetwork.vagrant_network_subnetwork -->
<g id="node11" class="node">
<title>[root] google_compute_subnetwork.vagrant_network_subnetwork</title>
<polygon fill="none" stroke="#000000" points="1531,-252 1086,-252 1086,-216 1531,-216 1531,-252"/>
<text text-anchor="middle" x="1308.5" y="-230.3" font-family="Times,serif" font-size="14.00" fill="#000000">google_compute_subnetwork.vagrant_network_subnetwork</text>
</g>
<!-- [root] google_compute_instance.vagrant&#45;build&#45;box&#45;&gt;[root] google_compute_subnetwork.vagrant_network_subnetwork -->
<g id="edge13" class="edge">
<title>[root] google_compute_instance.vagrant&#45;build&#45;box&#45;&gt;[root] google_compute_subnetwork.vagrant_network_subnetwork</title>
<path fill="none" stroke="#000000" d="M1790.4884,-287.9707C1695.7285,-277.36 1575.951,-263.9479 1479.5063,-253.1485"/>
<polygon fill="#000000" stroke="#000000" points="1479.6842,-249.6466 1469.3568,-252.012 1478.9052,-256.6031 1479.6842,-249.6466"/>
</g>
<!-- [root] var.disk&#45;size -->
<g id="node16" class="node">
<title>[root] var.disk&#45;size</title>
<ellipse fill="none" stroke="#000000" cx="1936.5" cy="-234" rx="96.6831" ry="18"/>
<text text-anchor="middle" x="1936.5" y="-230.3" font-family="Times,serif" font-size="14.00" fill="#000000">[root] var.disk&#45;size</text>
</g>
<!-- [root] google_compute_instance.vagrant&#45;build&#45;box&#45;&gt;[root] var.disk&#45;size -->
<g id="edge14" class="edge">
<title>[root] google_compute_instance.vagrant&#45;build&#45;box&#45;&gt;[root] var.disk&#45;size</title>
<path fill="none" stroke="#000000" d="M1947.7149,-287.8314C1946.1106,-280.131 1944.203,-270.9743 1942.4201,-262.4166"/>
<polygon fill="#000000" stroke="#000000" points="1945.8021,-261.4892 1940.3361,-252.4133 1938.9493,-262.9169 1945.8021,-261.4892"/>
</g>
<!-- [root] var.instance&#45;name -->
<g id="node17" class="node">
<title>[root] var.instance&#45;name</title>
<ellipse fill="none" stroke="#000000" cx="2175.5" cy="-234" rx="124.2781" ry="18"/>
<text text-anchor="middle" x="2175.5" y="-230.3" font-family="Times,serif" font-size="14.00" fill="#000000">[root] var.instance&#45;name</text>
</g>
<!-- [root] google_compute_instance.vagrant&#45;build&#45;box&#45;&gt;[root] var.instance&#45;name -->
<g id="edge15" class="edge">
<title>[root] google_compute_instance.vagrant&#45;build&#45;box&#45;&gt;[root] var.instance&#45;name</title>
<path fill="none" stroke="#000000" d="M2007.7355,-287.9243C2040.2904,-277.4602 2081.2845,-264.2835 2114.6002,-253.575"/>
<polygon fill="#000000" stroke="#000000" points="2115.777,-256.8731 2124.2262,-250.4809 2113.6348,-250.2089 2115.777,-256.8731"/>
</g>
<!-- [root] var.vm_type -->
<g id="node18" class="node">
<title>[root] var.vm_type</title>
<ellipse fill="none" stroke="#000000" cx="2413.5" cy="-234" rx="96.3833" ry="18"/>
<text text-anchor="middle" x="2413.5" y="-230.3" font-family="Times,serif" font-size="14.00" fill="#000000">[root] var.vm_type</text>
</g>
<!-- [root] google_compute_instance.vagrant&#45;build&#45;box&#45;&gt;[root] var.vm_type -->
<g id="edge16" class="edge">
<title>[root] google_compute_instance.vagrant&#45;build&#45;box&#45;&gt;[root] var.vm_type</title>
<path fill="none" stroke="#000000" d="M2074.6829,-287.9769C2143.5209,-277.752 2230.8355,-264.5295 2308.5,-252 2316.4184,-250.7225 2324.6672,-249.3613 2332.9073,-247.9814"/>
<polygon fill="#000000" stroke="#000000" points="2333.6514,-251.4055 2342.9312,-246.2933 2332.4888,-244.5027 2333.6514,-251.4055"/>
</g>
<!-- [root] var.vmcount -->
<g id="node19" class="node">
<title>[root] var.vmcount</title>
<ellipse fill="none" stroke="#000000" cx="2624.5" cy="-234" rx="96.6831" ry="18"/>
<text text-anchor="middle" x="2624.5" y="-230.3" font-family="Times,serif" font-size="14.00" fill="#000000">[root] var.vmcount</text>
</g>
<!-- [root] google_compute_instance.vagrant&#45;build&#45;box&#45;&gt;[root] var.vmcount -->
<g id="edge17" class="edge">
<title>[root] google_compute_instance.vagrant&#45;build&#45;box&#45;&gt;[root] var.vmcount</title>
<path fill="none" stroke="#000000" d="M2117.7816,-293.3902C2230.9808,-284.015 2384.0789,-269.7898 2518.5,-252 2527.0375,-250.8701 2535.9406,-249.5628 2544.8002,-248.1788"/>
<polygon fill="#000000" stroke="#000000" points="2545.4393,-251.6212 2554.7627,-246.589 2544.3361,-244.7087 2545.4393,-251.6212"/>
</g>
<!-- [root] google_compute_network.vagrant_network&#45;&gt;[root] provider.google -->
<g id="edge18" class="edge">
<title>[root] google_compute_network.vagrant_network&#45;&gt;[root] provider.google</title>
<path fill="none" stroke="#000000" d="M1058.0707,-143.9243C1111.4467,-131.3241 1181.484,-114.7907 1229.866,-103.3693"/>
<polygon fill="#000000" stroke="#000000" points="1230.9193,-106.717 1239.8477,-101.013 1229.311,-99.9042 1230.9193,-106.717"/>
</g>
<!-- [root] var.network -->
<g id="node20" class="node">
<title>[root] var.network</title>
<ellipse fill="none" stroke="#000000" cx="981.5" cy="-90" rx="94.7833" ry="18"/>
<text text-anchor="middle" x="981.5" y="-86.3" font-family="Times,serif" font-size="14.00" fill="#000000">[root] var.network</text>
</g>
<!-- [root] google_compute_network.vagrant_network&#45;&gt;[root] var.network -->
<g id="edge19" class="edge">
<title>[root] google_compute_network.vagrant_network&#45;&gt;[root] var.network</title>
<path fill="none" stroke="#000000" d="M981.5,-143.8314C981.5,-136.131 981.5,-126.9743 981.5,-118.4166"/>
<polygon fill="#000000" stroke="#000000" points="985.0001,-118.4132 981.5,-108.4133 978.0001,-118.4133 985.0001,-118.4132"/>
</g>
<!-- [root] google_compute_subnetwork.vagrant_network_subnetwork&#45;&gt;[root] google_compute_network.vagrant_network -->
<g id="edge20" class="edge">
<title>[root] google_compute_subnetwork.vagrant_network_subnetwork&#45;&gt;[root] google_compute_network.vagrant_network</title>
<path fill="none" stroke="#000000" d="M1226.4062,-215.9243C1179.7685,-205.6554 1121.2664,-192.7743 1073.1365,-182.1768"/>
<polygon fill="#000000" stroke="#000000" points="1073.8626,-178.753 1063.3439,-180.0207 1072.3574,-185.5892 1073.8626,-178.753"/>
</g>
<!-- [root] var.subnetwork&#45;region -->
<g id="node21" class="node">
<title>[root] var.subnetwork&#45;region</title>
<ellipse fill="none" stroke="#000000" cx="1307.5" cy="-162" rx="144.0747" ry="18"/>
<text text-anchor="middle" x="1307.5" y="-158.3" font-family="Times,serif" font-size="14.00" fill="#000000">[root] var.subnetwork&#45;region</text>
</g>
<!-- [root] google_compute_subnetwork.vagrant_network_subnetwork&#45;&gt;[root] var.subnetwork&#45;region -->
<g id="edge21" class="edge">
<title>[root] google_compute_subnetwork.vagrant_network_subnetwork&#45;&gt;[root] var.subnetwork&#45;region</title>
<path fill="none" stroke="#000000" d="M1308.2477,-215.8314C1308.1407,-208.131 1308.0135,-198.9743 1307.8947,-190.4166"/>
<polygon fill="#000000" stroke="#000000" points="1311.3944,-190.3637 1307.7557,-180.4133 1304.3951,-190.4609 1311.3944,-190.3637"/>
</g>
<!-- [root] var.project&#45;name -->
<g id="node24" class="node">
<title>[root] var.project&#45;name</title>
<ellipse fill="none" stroke="#000000" cx="1175.5" cy="-18" rx="118.0794" ry="18"/>
<text text-anchor="middle" x="1175.5" y="-14.3" font-family="Times,serif" font-size="14.00" fill="#000000">[root] var.project&#45;name</text>
</g>
<!-- [root] provider.google&#45;&gt;[root] var.project&#45;name -->
<g id="edge36" class="edge">
<title>[root] provider.google&#45;&gt;[root] var.project&#45;name</title>
<path fill="none" stroke="#000000" d="M1264.0375,-75.4297C1248.9328,-65.6321 1228.695,-52.5049 1211.3809,-41.2741"/>
<polygon fill="#000000" stroke="#000000" points="1212.9302,-38.1072 1202.6359,-35.6017 1209.1208,-43.98 1212.9302,-38.1072"/>
</g>
<!-- [root] var.region -->
<g id="node25" class="node">
<title>[root] var.region</title>
<ellipse fill="none" stroke="#000000" cx="1398.5" cy="-18" rx="86.3847" ry="18"/>
<text text-anchor="middle" x="1398.5" y="-14.3" font-family="Times,serif" font-size="14.00" fill="#000000">[root] var.region</text>
</g>
<!-- [root] provider.google&#45;&gt;[root] var.region -->
<g id="edge37" class="edge">
<title>[root] provider.google&#45;&gt;[root] var.region</title>
<path fill="none" stroke="#000000" d="M1309.1649,-75.4297C1324.5145,-65.5621 1345.1177,-52.3172 1362.6698,-41.0337"/>
<polygon fill="#000000" stroke="#000000" points="1365.0071,-43.692 1371.5262,-35.3403 1361.2218,-37.8038 1365.0071,-43.692"/>
</g>
<!-- [root] meta.count&#45;boundary (count boundary fixup) -->
<g id="node22" class="node">
<title>[root] meta.count&#45;boundary (count boundary fixup)</title>
<ellipse fill="none" stroke="#000000" cx="948.5" cy="-378" rx="248.0561" ry="18"/>
<text text-anchor="middle" x="948.5" y="-374.3" font-family="Times,serif" font-size="14.00" fill="#000000">[root] meta.count&#45;boundary (count boundary fixup)</text>
</g>
<!-- [root] meta.count&#45;boundary (count boundary fixup)&#45;&gt;[root] google_compute_firewall.firewall&#45;openshift&#45;console -->
<g id="edge22" class="edge">
<title>[root] meta.count&#45;boundary (count boundary fixup)&#45;&gt;[root] google_compute_firewall.firewall&#45;openshift&#45;console</title>
<path fill="none" stroke="#000000" d="M797.5828,-363.6459C680.9411,-352.5519 518.435,-337.0955 391.053,-324.9799"/>
<polygon fill="#000000" stroke="#000000" points="391.0694,-321.4658 380.7829,-324.0031 390.4066,-328.4343 391.0694,-321.4658"/>
</g>
<!-- [root] meta.count&#45;boundary (count boundary fixup)&#45;&gt;[root] google_compute_firewall.firewall&#45;secure&#45;forward -->
<g id="edge23" class="edge">
<title>[root] meta.count&#45;boundary (count boundary fixup)&#45;&gt;[root] google_compute_firewall.firewall&#45;secure&#45;forward</title>
<path fill="none" stroke="#000000" d="M862.698,-361.0282C809.6583,-350.5368 741.3221,-337.0198 685.6522,-326.0081"/>
<polygon fill="#000000" stroke="#000000" points="686.2568,-322.56 675.7677,-324.0529 684.8984,-329.4269 686.2568,-322.56"/>
</g>
<!-- [root] meta.count&#45;boundary (count boundary fixup)&#45;&gt;[root] google_compute_firewall.http -->
<g id="edge24" class="edge">
<title>[root] meta.count&#45;boundary (count boundary fixup)&#45;&gt;[root] google_compute_firewall.http</title>
<path fill="none" stroke="#000000" d="M936.6399,-359.8314C931.3371,-351.7079 924.9763,-341.9637 919.1327,-333.0118"/>
<polygon fill="#000000" stroke="#000000" points="921.9169,-330.8739 913.5198,-324.4133 916.0552,-334.7003 921.9169,-330.8739"/>
</g>
<!-- [root] meta.count&#45;boundary (count boundary fixup)&#45;&gt;[root] google_compute_firewall.https -->
<g id="edge25" class="edge">
<title>[root] meta.count&#45;boundary (count boundary fixup)&#45;&gt;[root] google_compute_firewall.https</title>
<path fill="none" stroke="#000000" d="M998.9112,-360.2946C1027.2595,-350.3381 1062.8475,-337.8389 1092.7295,-327.3438"/>
<polygon fill="#000000" stroke="#000000" points="1093.9394,-330.6285 1102.2146,-324.0124 1091.6198,-324.024 1093.9394,-330.6285"/>
</g>
<!-- [root] meta.count&#45;boundary (count boundary fixup)&#45;&gt;[root] google_compute_firewall.icmp -->
<g id="edge26" class="edge">
<title>[root] meta.count&#45;boundary (count boundary fixup)&#45;&gt;[root] google_compute_firewall.icmp</title>
<path fill="none" stroke="#000000" d="M1052.9412,-361.6171C1121.1597,-350.9161 1210.6013,-336.8861 1282.5829,-325.5948"/>
<polygon fill="#000000" stroke="#000000" points="1283.2831,-329.0279 1292.6199,-324.0204 1282.1983,-322.1125 1283.2831,-329.0279"/>
</g>
<!-- [root] meta.count&#45;boundary (count boundary fixup)&#45;&gt;[root] google_compute_firewall.ssh -->
<g id="edge27" class="edge">
<title>[root] meta.count&#45;boundary (count boundary fixup)&#45;&gt;[root] google_compute_firewall.ssh</title>
<path fill="none" stroke="#000000" d="M1118.6489,-364.8438C1233.1179,-355.3887 1387.6506,-341.46 1533.426,-324.0943"/>
<polygon fill="#000000" stroke="#000000" points="1533.9475,-327.557 1543.46,-322.8919 1533.1145,-320.6067 1533.9475,-327.557"/>
</g>
<!-- [root] meta.count&#45;boundary (count boundary fixup)&#45;&gt;[root] google_compute_instance.vagrant&#45;build&#45;box -->
<g id="edge28" class="edge">
<title>[root] meta.count&#45;boundary (count boundary fixup)&#45;&gt;[root] google_compute_instance.vagrant&#45;build&#45;box</title>
<path fill="none" stroke="#000000" d="M1126.1425,-365.3963C1152.7392,-363.5562 1179.8385,-361.7076 1205.5,-360 1455.8756,-343.3394 1521.371,-344.9661 1774.9819,-324.1086"/>
<polygon fill="#000000" stroke="#000000" points="1775.5701,-327.5721 1785.248,-323.2606 1774.9937,-320.5958 1775.5701,-327.5721"/>
</g>
<!-- [root] provider.google (close) -->
<g id="node23" class="node">
<title>[root] provider.google (close)</title>
<ellipse fill="none" stroke="#000000" cx="1360.5" cy="-378" rx="145.6742" ry="18"/>
<text text-anchor="middle" x="1360.5" y="-374.3" font-family="Times,serif" font-size="14.00" fill="#000000">[root] provider.google (close)</text>
</g>
<!-- [root] provider.google (close)&#45;&gt;[root] google_compute_firewall.firewall&#45;openshift&#45;console -->
<g id="edge29" class="edge">
<title>[root] provider.google (close)&#45;&gt;[root] google_compute_firewall.firewall&#45;openshift&#45;console</title>
<path fill="none" stroke="#000000" d="M1258.4666,-365.1022C1240.8251,-363.1725 1222.6476,-361.3731 1205.5,-360 847.8729,-331.3631 754.5442,-347.9225 393.3106,-324.1027"/>
<polygon fill="#000000" stroke="#000000" points="393.3019,-320.5945 383.0916,-323.4228 392.8372,-327.579 393.3019,-320.5945"/>
</g>
<!-- [root] provider.google (close)&#45;&gt;[root] google_compute_firewall.firewall&#45;secure&#45;forward -->
<g id="edge30" class="edge">
<title>[root] provider.google (close)&#45;&gt;[root] google_compute_firewall.firewall&#45;secure&#45;forward</title>
<path fill="none" stroke="#000000" d="M1255.9117,-365.3968C1239.0653,-363.4985 1221.8083,-361.6324 1205.5,-360 1018.8014,-341.3124 969.3266,-340.8733 778.2186,-324.057"/>
<polygon fill="#000000" stroke="#000000" points="778.3896,-320.5585 768.1203,-323.1648 777.7735,-327.5314 778.3896,-320.5585"/>
</g>
<!-- [root] provider.google (close)&#45;&gt;[root] google_compute_firewall.http -->
<g id="edge31" class="edge">
<title>[root] provider.google (close)&#45;&gt;[root] google_compute_firewall.http</title>
<path fill="none" stroke="#000000" d="M1270.364,-363.861C1200.7775,-352.9455 1103.68,-337.7145 1026.5722,-325.6192"/>
<polygon fill="#000000" stroke="#000000" points="1026.733,-322.1017 1016.3114,-324.0096 1025.6482,-329.0171 1026.733,-322.1017"/>
</g>
<!-- [root] provider.google (close)&#45;&gt;[root] google_compute_firewall.https -->
<g id="edge32" class="edge">
<title>[root] provider.google (close)&#45;&gt;[root] google_compute_firewall.https</title>
<path fill="none" stroke="#000000" d="M1311.706,-361.0282C1282.9087,-351.0117 1246.1822,-338.2373 1215.3653,-327.5184"/>
<polygon fill="#000000" stroke="#000000" points="1216.1798,-324.0961 1205.585,-324.1165 1213.8801,-330.7075 1216.1798,-324.0961"/>
</g>
<!-- [root] provider.google (close)&#45;&gt;[root] google_compute_firewall.icmp -->
<g id="edge33" class="edge">
<title>[root] provider.google (close)&#45;&gt;[root] google_compute_firewall.icmp</title>
<path fill="none" stroke="#000000" d="M1372.3601,-359.8314C1377.6629,-351.7079 1384.0237,-341.9637 1389.8673,-333.0118"/>
<polygon fill="#000000" stroke="#000000" points="1392.9448,-334.7003 1395.4802,-324.4133 1387.0831,-330.8739 1392.9448,-334.7003"/>
</g>
<!-- [root] provider.google (close)&#45;&gt;[root] google_compute_firewall.ssh -->
<g id="edge34" class="edge">
<title>[root] provider.google (close)&#45;&gt;[root] google_compute_firewall.ssh</title>
<path fill="none" stroke="#000000" d="M1426.3366,-361.9314C1469.2095,-351.4675 1525.5238,-337.723 1571.598,-326.4778"/>
<polygon fill="#000000" stroke="#000000" points="1572.6804,-329.8164 1581.5654,-324.0451 1571.0206,-323.016 1572.6804,-329.8164"/>
</g>
<!-- [root] provider.google (close)&#45;&gt;[root] google_compute_instance.vagrant&#45;build&#45;box -->
<g id="edge35" class="edge">
<title>[root] provider.google (close)&#45;&gt;[root] google_compute_instance.vagrant&#45;build&#45;box</title>
<path fill="none" stroke="#000000" d="M1464.4594,-365.3349C1555.5841,-354.2334 1689.4089,-337.9299 1793.7315,-325.2205"/>
<polygon fill="#000000" stroke="#000000" points="1794.2294,-328.6858 1803.7327,-324.0021 1793.3828,-321.7372 1794.2294,-328.6858"/>
</g>
<!-- [root] root -->
<g id="node26" class="node">
<title>[root] root</title>
<ellipse fill="none" stroke="#000000" cx="1154.5" cy="-450" rx="58.4896" ry="18"/>
<text text-anchor="middle" x="1154.5" y="-446.3" font-family="Times,serif" font-size="14.00" fill="#000000">[root] root</text>
</g>
<!-- [root] root&#45;&gt;[root] meta.count&#45;boundary (count boundary fixup) -->
<g id="edge38" class="edge">
<title>[root] root&#45;&gt;[root] meta.count&#45;boundary (count boundary fixup)</title>
<path fill="none" stroke="#000000" d="M1115.753,-436.4574C1085.6041,-425.9199 1043.2265,-411.1083 1008.6727,-399.0312"/>
<polygon fill="#000000" stroke="#000000" points="1009.7458,-395.6987 999.1509,-395.7032 1007.4361,-402.3067 1009.7458,-395.6987"/>
</g>
<!-- [root] root&#45;&gt;[root] provider.google (close) -->
<g id="edge39" class="edge">
<title>[root] root&#45;&gt;[root] provider.google (close)</title>
<path fill="none" stroke="#000000" d="M1193.247,-436.4574C1223.9286,-425.7337 1267.2748,-410.5836 1302.1513,-398.3937"/>
<polygon fill="#000000" stroke="#000000" points="1303.4609,-401.6437 1311.7461,-395.0402 1301.1513,-395.0357 1303.4609,-401.6437"/>
</g>
</g>
</svg>
